HIERARCHY
ROOT Hips
{
	OFFSET 0.000000 0.000000 0.000000
	CHANNELS 6 Xposition Yposition Zposition Zrotation Yrotation Xrotation 
	JOINT LHipJoint
	{
		OFFSET 0.000000 0.000000 0.000000
		CHANNELS 3 Zrotation Yrotation Xrotation
		JOINT LeftUpLeg
		{
			OFFSET 1.363060 -1.794630 0.839290
			CHANNELS 3 Zrotation Yrotation Xrotation
			JOINT LeftLeg
			{
				OFFSET 2.448110 -6.726130 0.000000
				CHANNELS 3 Zrotation Yrotation Xrotation
				JOINT LeftFoot
				{
					OFFSET 2.562200 -7.039590 0.000000
					CHANNELS 3 Zrotation Yrotation Xrotation
					JOINT LeftToeBase
					{
						OFFSET 0.157640 -0.433110 2.322550
						CHANNELS 3 Zrotation Yrotation Xrotation
						End Site
						{
							OFFSET 0.000000 0.000000 0.000000
						}
					}
				}
			}
		}
	}
	JOINT RHipJoint
	{
		OFFSET 0.000000 0.000000 0.000000
		CHANNELS 3 Zrotation Yrotation Xrotation
		JOINT RightUpLeg
		{
			OFFSET -1.305520 -1.794630 0.839290
			CHANNELS 3 Zrotation Yrotation Xrotation
			JOINT RightLeg
			{
				OFFSET -2.542530 -6.985550 0.000000
				CHANNELS 3 Zrotation Yrotation Xrotation
				JOINT RightFoot
				{
					OFFSET -2.568260 -7.056230 0.000000
					CHANNELS 3 Zrotation Yrotation Xrotation
					JOINT RightToeBase
					{
						OFFSET -0.164730 -0.452590 2.363150
						CHANNELS 3 Zrotation Yrotation Xrotation
						End Site
						{
							OFFSET 0.000000 0.000000 0.000000
						}
					}
				}
			}
		}
	}
	JOINT LowerBack
	{
		OFFSET 0.000000 0.000000 0.000000
		CHANNELS 3 Zrotation Yrotation Xrotation
		JOINT Spine
		{
			OFFSET 0.028270 2.035590 -0.193380
			CHANNELS 3 Zrotation Yrotation Xrotation
			JOINT Spine1
			{
				OFFSET 0.056720 2.048850 -0.042750
				CHANNELS 3 Zrotation Yrotation Xrotation
				JOINT Neck
				{
					OFFSET 0.000000 0.000000 0.000000
					CHANNELS 3 Zrotation Yrotation Xrotation
					JOINT Neck1
					{
						OFFSET -0.054170 1.746240 0.172020
						CHANNELS 3 Zrotation Yrotation Xrotation
						JOINT Head
						{
							OFFSET 0.104070 1.761360 -0.123970
							CHANNELS 3 Zrotation Yrotation Xrotation
							End Site
							{
								OFFSET 0.000000 0.000000 0.000000
							}
						}
					}
				}
				JOINT LeftShoulder
				{
					OFFSET 0.000000 0.000000 0.000000
					CHANNELS 3 Zrotation Yrotation Xrotation
					JOINT LeftArm
					{
						OFFSET 3.362410 1.200890 -0.311210
						CHANNELS 3 Zrotation Yrotation Xrotation
						JOINT LeftForeArm
						{
							OFFSET 4.983000 -0.000000 -0.000000
							CHANNELS 3 Zrotation Yrotation Xrotation
							JOINT LeftHand
							{
								OFFSET 3.483560 -0.000000 -0.000000
								CHANNELS 3 Zrotation Yrotation Xrotation
								JOINT LeftFingerBase
								{
									OFFSET 0.000000 0.000000 0.000000
									CHANNELS 3 Zrotation Yrotation Xrotation
									JOINT LeftHandIndex1
									{
										OFFSET 0.715260 -0.000000 -0.000000
										CHANNELS 3 Zrotation Yrotation Xrotation
										End Site
										{
											OFFSET 0.000000 0.000000 0.000000
										}
									}
								}
								JOINT LThumb
								{
									OFFSET 0.000000 0.000000 0.000000
									CHANNELS 3 Zrotation Yrotation Xrotation
									End Site
									{
										OFFSET 0.000000 0.000000 0.000000
									}
								}
							}
						}
					}
				}
				JOINT RightShoulder
				{
					OFFSET 0.000000 0.000000 0.000000
					CHANNELS 3 Zrotation Yrotation Xrotation
					JOINT RightArm
					{
						OFFSET -3.136600 1.374050 -0.404650
						CHANNELS 3 Zrotation Yrotation Xrotation
						JOINT RightForeArm
						{
							OFFSET -5.241900 -0.000000 -0.000000
							CHANNELS 3 Zrotation Yrotation Xrotation
							JOINT RightHand
							{
								OFFSET -3.444170 -0.000000 -0.000000
								CHANNELS 3 Zrotation Yrotation Xrotation
								JOINT RightFingerBase
								{
									OFFSET 0.000000 0.000000 0.000000
									CHANNELS 3 Zrotation Yrotation Xrotation
									JOINT RightHandIndex1
									{
										OFFSET -0.622530 -0.000000 -0.000000
										CHANNELS 3 Zrotation Yrotation Xrotation
										End Site
										{
											OFFSET 0.000000 0.000000 0.000000
										}
									}
								}
								JOINT RThumb
								{
									OFFSET 0.000000 0.000000 0.000000
									CHANNELS 3 Zrotation Yrotation Xrotation
									End Site
									{
										OFFSET 0.000000 0.000000 0.000000
									}
								}
							}
						}
					}
				}
			}
		}
	}
}
MOTION
Frames: 4
Frame Time: 0.008333
2.897274 17.373784 0.611232 -178.324840 -61.197096 -171.593263 -12.490104 4.240440 -0.134963 -5.523887 30.357818 -12.170158 -2.403809 -0.509872 2.292399 2.667763 20.075047 1.586221 3.353700 -0.000001 -44.094400 9.084405 -1.833888 5.271168 -0.874956 5.951531 -14.603893 2.670365 1.244231 2.684095 1.193956 5.401309 8.256556 0.689300 0.000000 -74.433000 2.566105 -7.067375 -7.934069 1.631165 -7.278659 -4.135993 -0.522157 -7.430670 0.461359 14.462152 -18.369878 -9.304698 1.046510 0.115124 -0.375233 0.000000 0.000000 0.000000 23.357747 -2.495289 4.408335 7.902688 -35.007840 -45.405940 -0.689206 2.740786 -0.032477 6.285969 -2.154370 -0.147243 -0.306959 0.392615 -0.000000 0.000000 0.000000 0.000000 0.000000 0.000000 0.000000 2.769644 -17.955601 -2.583189 22.103699 32.992206 -6.858418 -178.644192 60.698257 179.885019 -11.335159 5.259606 -0.598510 0.177813 -0.666285 -0.000000 0.000000 0.000000 0.000000 0.000000 0.000000 0.000000 
2.880944 17.372023 0.607498 -178.680940 -61.030323 -171.276039 -12.480795 4.251349 -0.153941 -5.693209 30.348174 -12.151151 -2.403049 -0.496062 2.512134 2.695995 20.280224 1.559804 3.384100 -0.000000 -44.266100 9.080589 -1.856654 5.365559 -1.146397 6.348904 -14.493797 2.626326 1.247024 2.536291 1.150106 5.058751 8.196183 0.595000 0.000000 -74.154000 2.531667 -6.991978 -8.030396 1.659265 -7.209724 -4.079553 -0.368584 -7.381991 0.816054 13.994894 -18.917851 -9.638064 1.132680 0.129730 -0.468822 0.000000 0.000000 0.000000 23.556401 -0.094639 4.081666 6.534904 -38.190094 -45.654842 -0.347016 0.888436 -0.032487 6.046616 -3.080225 -0.194710 -0.270816 0.437793 -0.000000 0.000000 0.000000 0.000000 0.000000 0.000000 0.000000 2.106757 -18.340665 -2.618097 21.435091 31.653862 -7.697729 -178.607109 60.074009 179.885564 -11.296695 5.290890 -0.599733 0.177772 -0.666006 0.000000 0.000000 0.000000 0.000000 0.000000 0.000000 0.000000 
2.865309 17.368686 0.601428 -178.986521 -60.642816 -171.030261 -12.480042 4.249681 -0.223813 -5.818587 30.577114 -12.113013 -2.413446 -0.479861 2.785962 2.721880 20.497107 1.514420 3.405200 -0.000000 -44.467500 9.061653 -1.893836 5.513246 -1.418061 6.987088 -14.432451 2.581084 1.239794 2.451796 1.103301 4.716328 8.093125 0.500000 0.000000 -73.826400 2.577543 -6.836183 -8.134668 1.691221 -7.062702 -4.042240 -0.227329 -7.257009 1.145947 13.474927 -19.463127 -9.909036 1.178858 0.140075 -0.543705 0.000000 0.000000 0.000000 23.793767 2.236723 3.524356 2.723132 -39.810442 -39.859574 0.096902 -5.937597 -0.041042 5.907228 -1.786950 -0.121045 -0.232227 0.460939 -0.000000 0.000000 0.000000 0.000000 0.000000 0.000000 0.000000 1.401465 -18.577389 -2.574528 20.709123 30.161476 -8.596755 -178.605229 59.353936 179.885724 -11.286152 5.345833 -0.605240 0.182864 -0.669133 0.000000 0.000000 0.000000 0.000000 0.000000 0.000000 0.000000 
2.850235 17.363734 0.593504 -179.251333 -60.115102 -170.855730 -12.490899 4.239885 -0.326612 -5.900121 30.998619 -12.057893 -2.433121 -0.465787 3.098268 2.742330 20.704833 1.450482 3.413600 -0.000001 -44.693500 9.026055 -1.949766 5.704852 -1.681638 7.776774 -14.420973 2.536571 1.222654 2.449761 1.057201 4.408109 7.938190 0.413800 0.000000 -73.481000 2.733695 -6.585194 -8.250235 1.701389 -6.829421 -4.062641 -0.215090 -7.035451 1.289955 12.890835 -19.932758 -9.968731 1.183261 0.142467 -0.557060 0.000000 0.000000 0.000000 23.759229 3.602687 2.858716 -1.703298 -38.828672 -31.684157 0.552766 -16.370406 -0.056206 6.398404 0.592849 0.006193 -0.202860 0.480125 -0.000000 0.000000 0.000000 0.000000 0.000000 0.000000 0.000000 0.625346 -18.690269 -2.396442 20.102857 28.392051 -9.408370 -178.678347 58.544680 179.886253 -11.270352 5.402426 -0.611213 0.194821 -0.674388 0.000000 0.000000 0.000000 0.000000 0.000000 0.000000 0.000000 
